<?xml version="1.0" encoding="UTF-8"?>
<!DOCTYPE svg PUBLIC "-//W3C//DTD SVG 1.1//EN" "http://www.w3.org/Graphics/SVG/1.1/DTD/svg11.dtd">
<svg version="1.2" width="210mm" height="297mm" viewBox="0 0 21000 29700" preserveAspectRatio="xMidYMid" fill-rule="evenodd" stroke-width="28.222" stroke-linejoin="round" xmlns="http://www.w3.org/2000/svg" xmlns:ooo="http://xml.openoffice.org/svg/export" xmlns:xlink="http://www.w3.org/1999/xlink" xmlns:presentation="http://sun.com/xmlns/staroffice/presentation" xmlns:smil="http://www.w3.org/2001/SMIL20/" xmlns:anim="urn:oasis:names:tc:opendocument:xmlns:animation:1.0" xml:space="preserve">
 <defs class="ClipPathGroup">
  <clipPath id="presentation_clip_path" clipPathUnits="userSpaceOnUse">
   <rect x="0" y="0" width="21000" height="29700"/>
  </clipPath>
  <clipPath id="presentation_clip_path_shrink" clipPathUnits="userSpaceOnUse">
   <rect x="21" y="29" width="20958" height="29641"/>
  </clipPath>
 </defs>
 <defs class="TextShapeIndex">
  <g ooo:slide="id1" ooo:id-list="id3 id4 id5 id6 id7 id8 id9 id10 id11 id12 id13 id14 id15"/>
 </defs>
 <defs class="EmbeddedBulletChars">
  <g id="bullet-char-template-57356" transform="scale(0.00048828125,-0.00048828125)">
   <path d="M 580,1141 L 1163,571 580,0 -4,571 580,1141 Z"/>
  </g>
  <g id="bullet-char-template-57354" transform="scale(0.00048828125,-0.00048828125)">
   <path d="M 8,1128 L 1137,1128 1137,0 8,0 8,1128 Z"/>
  </g>
  <g id="bullet-char-template-10146" transform="scale(0.00048828125,-0.00048828125)">
   <path d="M 174,0 L 602,739 174,1481 1456,739 174,0 Z M 1358,739 L 309,1346 659,739 1358,739 Z"/>
  </g>
  <g id="bullet-char-template-10132" transform="scale(0.00048828125,-0.00048828125)">
   <path d="M 2015,739 L 1276,0 717,0 1260,543 174,543 174,936 1260,936 717,1481 1274,1481 2015,739 Z"/>
  </g>
  <g id="bullet-char-template-10007" transform="scale(0.00048828125,-0.00048828125)">
   <path d="M 0,-2 C -7,14 -16,27 -25,37 L 356,567 C 262,823 215,952 215,954 215,979 228,992 255,992 264,992 276,990 289,987 310,991 331,999 354,1012 L 381,999 492,748 772,1049 836,1024 860,1049 C 881,1039 901,1025 922,1006 886,937 835,863 770,784 769,783 710,716 594,584 L 774,223 C 774,196 753,168 711,139 L 727,119 C 717,90 699,76 672,76 641,76 570,178 457,381 L 164,-76 C 142,-110 111,-127 72,-127 30,-127 9,-110 8,-76 1,-67 -2,-52 -2,-32 -2,-23 -1,-13 0,-2 Z"/>
  </g>
  <g id="bullet-char-template-10004" transform="scale(0.00048828125,-0.00048828125)">
   <path d="M 285,-33 C 182,-33 111,30 74,156 52,228 41,333 41,471 41,549 55,616 82,672 116,743 169,778 240,778 293,778 328,747 346,684 L 369,508 C 377,444 397,411 428,410 L 1163,1116 C 1174,1127 1196,1133 1229,1133 1271,1133 1292,1118 1292,1087 L 1292,965 C 1292,929 1282,901 1262,881 L 442,47 C 390,-6 338,-33 285,-33 Z"/>
  </g>
  <g id="bullet-char-template-9679" transform="scale(0.00048828125,-0.00048828125)">
   <path d="M 813,0 C 632,0 489,54 383,161 276,268 223,411 223,592 223,773 276,916 383,1023 489,1130 632,1184 813,1184 992,1184 1136,1130 1245,1023 1353,916 1407,772 1407,592 1407,412 1353,268 1245,161 1136,54 992,0 813,0 Z"/>
  </g>
  <g id="bullet-char-template-8226" transform="scale(0.00048828125,-0.00048828125)">
   <path d="M 346,457 C 273,457 209,483 155,535 101,586 74,649 74,723 74,796 101,859 155,911 209,963 273,989 346,989 419,989 480,963 531,910 582,859 608,796 608,723 608,648 583,586 532,535 482,483 420,457 346,457 Z"/>
  </g>
  <g id="bullet-char-template-8211" transform="scale(0.00048828125,-0.00048828125)">
   <path d="M -4,459 L 1135,459 1135,606 -4,606 -4,459 Z"/>
  </g>
  <g id="bullet-char-template-61548" transform="scale(0.00048828125,-0.00048828125)">
   <path d="M 173,740 C 173,903 231,1043 346,1159 462,1274 601,1332 765,1332 928,1332 1067,1274 1183,1159 1299,1043 1357,903 1357,740 1357,577 1299,437 1183,322 1067,206 928,148 765,148 601,148 462,206 346,322 231,437 173,577 173,740 Z"/>
  </g>
 </defs>
 <g>
  <g id="id2" class="Master_Slide">
   <g id="bg-id2" class="Background"/>
   <g id="bo-id2" class="BackgroundObjects"/>
  </g>
 </g>
 <g class="SlideGroup">
  <g>
   <g id="container-id1">
    <g id="id1" class="Slide" clip-path="url(#presentation_clip_path)">
     <g class="Page">
      <g class="com.sun.star.drawing.CustomShape">
       <g id="id3">
        <rect class="BoundingBox" stroke="none" fill="none" x="999" y="999" width="19003" height="10003"/>
        <path fill="rgb(5,77,154)" stroke="none" d="M 10500,11000 L 1000,11000 1000,1000 20000,1000 20000,11000 10500,11000 Z"/>
        <path fill="none" stroke="rgb(5,77,154)" d="M 10500,11000 L 1000,11000 1000,1000 20000,1000 20000,11000 10500,11000 Z"/>
       </g>
      </g>
      <g class="com.sun.star.drawing.ClosedBezierShape">
       <g id="id4">
        <rect class="BoundingBox" stroke="none" fill="none" x="999" y="2178" width="19011" height="8824"/>
        <path fill="rgb(8,6,4)" stroke="none" d="M 1008,11000 C 1008,9500 758,9500 3008,8500 4588,7710 2870,7661 6758,6250 9008,3500 10386,1804 11258,2250 11654,2453 15258,3500 15758,4250 16758,5500 16758,4750 17508,6000 17538,6154 18008,7500 18008,7500 18315,8062 18607,8015 18885,8567 19069,9022 19572,8905 20008,9500 20008,10000 20008,10500 20008,11000 14008,11000 7008,11000 1008,11000 Z"/>
        <path fill="none" stroke="rgb(8,6,4)" d="M 1008,11000 C 1008,9500 758,9500 3008,8500 4588,7710 2870,7661 6758,6250 9008,3500 10386,1804 11258,2250 11654,2453 15258,3500 15758,4250 16758,5500 16758,4750 17508,6000 17538,6154 18008,7500 18008,7500 18315,8062 18607,8015 18885,8567 19069,9022 19572,8905 20008,9500 L 20008,11000 1008,11000 Z"/>
       </g>
      </g>
      <g class="com.sun.star.drawing.CustomShape">
       <g id="id5">
        <rect class="BoundingBox" stroke="none" fill="none" x="999" y="10999" width="19003" height="2253"/>
        <path fill="rgb(0,46,94)" stroke="none" d="M 10500,13250 L 1000,13250 1000,11000 20000,11000 20000,13250 10500,13250 Z"/>
        <path fill="none" stroke="rgb(0,46,94)" d="M 10500,13250 L 1000,13250 1000,11000 20000,11000 20000,13250 10500,13250 Z"/>
       </g>
      </g>
      <g class="com.sun.star.drawing.CustomShape">
       <g id="id6">
        <rect class="BoundingBox" stroke="none" fill="none" x="9249" y="7648" width="14" height="14"/>
        <path fill="rgb(255,255,0)" stroke="none" d="M 9261,7655 C 9261,7654 9261,7653 9260,7652 9260,7651 9259,7650 9258,7650 9257,7649 9256,7649 9256,7649 9255,7649 9254,7649 9253,7650 9252,7650 9251,7651 9251,7652 9250,7653 9250,7654 9250,7655 9250,7655 9250,7656 9251,7657 9251,7658 9252,7659 9253,7659 9254,7660 9255,7660 9256,7660 9256,7660 9257,7660 9258,7659 9259,7659 9260,7658 9260,7657 9261,7656 9261,7655 9261,7655 L 9261,7655 Z"/>
        <path fill="none" stroke="rgb(255,255,0)" d="M 9261,7655 C 9261,7654 9261,7653 9260,7652 9260,7651 9259,7650 9258,7650 9257,7649 9256,7649 9256,7649 9255,7649 9254,7649 9253,7650 9252,7650 9251,7651 9251,7652 9250,7653 9250,7654 9250,7655 9250,7655 9250,7656 9251,7657 9251,7658 9252,7659 9253,7659 9254,7660 9255,7660 9256,7660 9256,7660 9257,7660 9258,7659 9259,7659 9260,7658 9260,7657 9261,7656 9261,7655 9261,7655 Z"/>
       </g>
      </g>
      <g class="com.sun.star.drawing.CustomShape">
       <g id="id7">
        <rect class="BoundingBox" stroke="none" fill="none" x="12298" y="6048" width="24" height="24"/>
        <path fill="rgb(255,255,0)" stroke="none" d="M 12320,6060 C 12320,6058 12320,6056 12319,6054 12318,6053 12316,6051 12315,6050 12313,6049 12311,6049 12310,6049 12308,6049 12306,6049 12304,6050 12303,6051 12301,6053 12300,6054 12299,6056 12299,6058 12299,6060 12299,6061 12299,6063 12300,6065 12301,6066 12303,6068 12304,6069 12306,6070 12308,6070 12310,6070 12311,6070 12313,6070 12315,6069 12316,6068 12318,6066 12319,6065 12320,6063 12320,6061 12320,6060 L 12320,6060 Z"/>
        <path fill="none" stroke="rgb(255,255,0)" d="M 12320,6060 C 12320,6058 12320,6056 12319,6054 12318,6053 12316,6051 12315,6050 12313,6049 12311,6049 12310,6049 12308,6049 12306,6049 12304,6050 12303,6051 12301,6053 12300,6054 12299,6056 12299,6058 12299,6060 12299,6061 12299,6063 12300,6065 12301,6066 12303,6068 12304,6069 12306,6070 12308,6070 12310,6070 12311,6070 12313,6070 12315,6069 12316,6068 12318,6066 12319,6065 12320,6063 12320,6061 12320,6060 Z"/>
       </g>
      </g>
      <g class="com.sun.star.drawing.CustomShape">
       <g id="id8">
        <rect class="BoundingBox" stroke="none" fill="none" x="9249" y="8741" width="74" height="74"/>
        <path fill="rgb(255,255,0)" stroke="none" d="M 9321,8778 C 9321,8771 9319,8765 9316,8760 9313,8754 9309,8750 9303,8747 9298,8744 9292,8742 9286,8742 9279,8742 9273,8744 9268,8747 9262,8750 9258,8754 9255,8760 9252,8765 9250,8771 9250,8778 9250,8784 9252,8790 9255,8795 9258,8801 9262,8805 9268,8808 9273,8811 9279,8813 9286,8813 9292,8813 9298,8811 9303,8808 9309,8805 9313,8801 9316,8795 9319,8790 9321,8784 9321,8778 L 9321,8778 Z"/>
        <path fill="none" stroke="rgb(255,255,0)" d="M 9321,8778 C 9321,8771 9319,8765 9316,8760 9313,8754 9309,8750 9303,8747 9298,8744 9292,8742 9286,8742 9279,8742 9273,8744 9268,8747 9262,8750 9258,8754 9255,8760 9252,8765 9250,8771 9250,8778 9250,8784 9252,8790 9255,8795 9258,8801 9262,8805 9268,8808 9273,8811 9279,8813 9286,8813 9292,8813 9298,8811 9303,8808 9309,8805 9313,8801 9316,8795 9319,8790 9321,8784 9321,8778 Z"/>
       </g>
      </g>
      <g class="com.sun.star.drawing.CustomShape">
       <g id="id9">
        <rect class="BoundingBox" stroke="none" fill="none" x="6778" y="8156" width="74" height="74"/>
        <path fill="rgb(255,255,0)" stroke="none" d="M 6850,8193 C 6850,8186 6848,8180 6845,8175 6842,8169 6838,8165 6832,8162 6827,8159 6821,8157 6815,8157 6808,8157 6802,8159 6797,8162 6791,8165 6787,8169 6784,8175 6781,8180 6779,8186 6779,8193 6779,8199 6781,8205 6784,8210 6787,8216 6791,8220 6797,8223 6802,8226 6808,8228 6815,8228 6821,8228 6827,8226 6832,8223 6838,8220 6842,8216 6845,8210 6848,8205 6850,8199 6850,8193 L 6850,8193 Z"/>
        <path fill="none" stroke="rgb(255,255,0)" d="M 6850,8193 C 6850,8186 6848,8180 6845,8175 6842,8169 6838,8165 6832,8162 6827,8159 6821,8157 6815,8157 6808,8157 6802,8159 6797,8162 6791,8165 6787,8169 6784,8175 6781,8180 6779,8186 6779,8193 6779,8199 6781,8205 6784,8210 6787,8216 6791,8220 6797,8223 6802,8226 6808,8228 6815,8228 6821,8228 6827,8226 6832,8223 6838,8220 6842,8216 6845,8210 6848,8205 6850,8199 6850,8193 Z"/>
       </g>
      </g>
      <g class="com.sun.star.drawing.CustomShape">
       <g id="id10">
        <rect class="BoundingBox" stroke="none" fill="none" x="4184" y="9664" width="34" height="34"/>
        <path fill="rgb(255,255,0)" stroke="none" d="M 4216,9681 C 4216,9678 4215,9675 4214,9673 4213,9670 4211,9668 4208,9667 4206,9666 4203,9665 4201,9665 4198,9665 4195,9666 4193,9667 4190,9668 4188,9670 4187,9673 4186,9675 4185,9678 4185,9681 4185,9683 4186,9686 4187,9688 4188,9691 4190,9693 4193,9694 4195,9695 4198,9696 4201,9696 4203,9696 4206,9695 4208,9694 4211,9693 4213,9691 4214,9688 4215,9686 4216,9683 4216,9681 L 4216,9681 Z"/>
        <path fill="none" stroke="rgb(255,255,0)" d="M 4216,9681 C 4216,9678 4215,9675 4214,9673 4213,9670 4211,9668 4208,9667 4206,9666 4203,9665 4201,9665 4198,9665 4195,9666 4193,9667 4190,9668 4188,9670 4187,9673 4186,9675 4185,9678 4185,9681 4185,9683 4186,9686 4187,9688 4188,9691 4190,9693 4193,9694 4195,9695 4198,9696 4201,9696 4203,9696 4206,9695 4208,9694 4211,9693 4213,9691 4214,9688 4215,9686 4216,9683 4216,9681 Z"/>
       </g>
      </g>
      <g class="com.sun.star.drawing.CustomShape">
       <g id="id11">
        <rect class="BoundingBox" stroke="none" fill="none" x="15150" y="9348" width="64" height="64"/>
        <path fill="rgb(255,255,0)" stroke="none" d="M 15212,9380 C 15212,9374 15211,9369 15208,9364 15205,9360 15201,9356 15197,9353 15192,9350 15187,9349 15182,9349 15176,9349 15171,9350 15166,9353 15162,9356 15158,9360 15155,9364 15152,9369 15151,9374 15151,9380 15151,9385 15152,9390 15155,9395 15158,9399 15162,9403 15166,9406 15171,9409 15176,9410 15182,9410 15187,9410 15192,9409 15197,9406 15201,9403 15205,9399 15208,9395 15211,9390 15212,9385 15212,9380 L 15212,9380 Z"/>
        <path fill="none" stroke="rgb(255,255,0)" d="M 15212,9380 C 15212,9374 15211,9369 15208,9364 15205,9360 15201,9356 15197,9353 15192,9350 15187,9349 15182,9349 15176,9349 15171,9350 15166,9353 15162,9356 15158,9360 15155,9364 15152,9369 15151,9374 15151,9380 15151,9385 15152,9390 15155,9395 15158,9399 15162,9403 15166,9406 15171,9409 15176,9410 15182,9410 15187,9410 15192,9409 15197,9406 15201,9403 15205,9399 15208,9395 15211,9390 15212,9385 15212,9380 Z"/>
       </g>
      </g>
      <g class="com.sun.star.drawing.CustomShape">
       <g id="id12">
        <rect class="BoundingBox" stroke="none" fill="none" x="16050" y="7349" width="54" height="54"/>
        <path fill="rgb(255,255,0)" stroke="none" d="M 16102,7376 C 16102,7371 16101,7367 16099,7363 16096,7359 16093,7356 16089,7353 16085,7351 16081,7350 16077,7350 16072,7350 16068,7351 16064,7353 16060,7356 16057,7359 16054,7363 16052,7367 16051,7371 16051,7376 16051,7380 16052,7384 16054,7388 16057,7392 16060,7395 16064,7398 16068,7400 16072,7401 16077,7401 16081,7401 16085,7400 16089,7398 16093,7395 16096,7392 16099,7388 16101,7384 16102,7380 16102,7376 L 16102,7376 Z"/>
        <path fill="none" stroke="rgb(255,255,0)" d="M 16102,7376 C 16102,7371 16101,7367 16099,7363 16096,7359 16093,7356 16089,7353 16085,7351 16081,7350 16077,7350 16072,7350 16068,7351 16064,7353 16060,7356 16057,7359 16054,7363 16052,7367 16051,7371 16051,7376 16051,7380 16052,7384 16054,7388 16057,7392 16060,7395 16064,7398 16068,7400 16072,7401 16077,7401 16081,7401 16085,7400 16089,7398 16093,7395 16096,7392 16099,7388 16101,7384 16102,7380 16102,7376 Z"/>
       </g>
      </g>
      <g class="com.sun.star.drawing.CustomShape">
       <g id="id13">
        <rect class="BoundingBox" stroke="none" fill="none" x="7863" y="10148" width="24" height="34"/>
        <path fill="rgb(255,255,0)" stroke="none" d="M 7885,10165 C 7885,10162 7885,10159 7884,10157 7883,10154 7881,10152 7880,10151 7878,10150 7876,10149 7875,10149 7873,10149 7871,10150 7869,10151 7868,10152 7866,10154 7865,10157 7864,10159 7864,10162 7864,10165 7864,10167 7864,10170 7865,10172 7866,10175 7868,10177 7869,10178 7871,10179 7873,10180 7875,10180 7876,10180 7878,10179 7880,10178 7881,10177 7883,10175 7884,10172 7885,10170 7885,10167 7885,10165 L 7885,10165 Z"/>
        <path fill="none" stroke="rgb(255,255,0)" d="M 7885,10165 C 7885,10162 7885,10159 7884,10157 7883,10154 7881,10152 7880,10151 7878,10150 7876,10149 7875,10149 7873,10149 7871,10150 7869,10151 7868,10152 7866,10154 7865,10157 7864,10159 7864,10162 7864,10165 7864,10167 7864,10170 7865,10172 7866,10175 7868,10177 7869,10178 7871,10179 7873,10180 7875,10180 7876,10180 7878,10179 7880,10178 7881,10177 7883,10175 7884,10172 7885,10170 7885,10167 7885,10165 Z"/>
       </g>
      </g>
      <g class="com.sun.star.drawing.CustomShape">
       <g id="id14">
        <rect class="BoundingBox" stroke="none" fill="none" x="11794" y="10563" width="44" height="44"/>
        <path fill="rgb(255,255,0)" stroke="none" d="M 11836,10585 C 11836,10581 11835,10577 11833,10574 11831,10571 11829,10569 11826,10567 11823,10565 11819,10564 11815,10564 11812,10564 11808,10565 11805,10567 11802,10569 11800,10571 11798,10574 11796,10577 11795,10581 11795,10585 11795,10588 11796,10592 11798,10595 11800,10598 11802,10600 11805,10602 11808,10604 11812,10605 11815,10605 11819,10605 11823,10604 11826,10602 11829,10600 11831,10598 11833,10595 11835,10592 11836,10588 11836,10585 L 11836,10585 Z"/>
        <path fill="none" stroke="rgb(255,255,0)" d="M 11836,10585 C 11836,10581 11835,10577 11833,10574 11831,10571 11829,10569 11826,10567 11823,10565 11819,10564 11815,10564 11812,10564 11808,10565 11805,10567 11802,10569 11800,10571 11798,10574 11796,10577 11795,10581 11795,10585 11795,10588 11796,10592 11798,10595 11800,10598 11802,10600 11805,10602 11808,10604 11812,10605 11815,10605 11819,10605 11823,10604 11826,10602 11829,10600 11831,10598 11833,10595 11835,10592 11836,10588 11836,10585 Z"/>
       </g>
      </g>
      <g class="com.sun.star.drawing.CustomShape">
       <g id="id15">
        <rect class="BoundingBox" stroke="none" fill="none" x="2650" y="2148" width="544" height="544"/>
        <path fill="rgb(255,255,0)" stroke="none" d="M 3192,2420 C 3192,2372 3180,2325 3156,2284 3132,2243 3098,2209 3057,2185 3016,2161 2969,2149 2922,2149 2874,2149 2827,2161 2786,2185 2745,2209 2711,2243 2687,2284 2663,2325 2651,2372 2651,2420 2651,2467 2663,2514 2687,2555 2711,2596 2745,2630 2786,2654 2827,2678 2874,2690 2922,2690 2969,2690 3016,2678 3057,2654 3098,2630 3132,2596 3156,2555 3180,2514 3192,2467 3192,2420 L 3192,2420 Z"/>
        <path fill="none" stroke="rgb(255,255,0)" d="M 3192,2420 C 3192,2372 3180,2325 3156,2284 3132,2243 3098,2209 3057,2185 3016,2161 2969,2149 2922,2149 2874,2149 2827,2161 2786,2185 2745,2209 2711,2243 2687,2284 2663,2325 2651,2372 2651,2420 2651,2467 2663,2514 2687,2555 2711,2596 2745,2630 2786,2654 2827,2678 2874,2690 2922,2690 2969,2690 3016,2678 3057,2654 3098,2630 3132,2596 3156,2555 3180,2514 3192,2467 3192,2420 L 3192,2420 Z"/>
       </g>
      </g>
     </g>
    </g>
   </g>
  </g>
 </g>
</svg>