<?xml version="1.0" encoding="UTF-8" standalone="no"?>
<svg
   xmlns:ooo="http://xml.openoffice.org/svg/export"
   xmlns:dc="http://purl.org/dc/elements/1.1/"
   xmlns:cc="http://creativecommons.org/ns#"
   xmlns:rdf="http://www.w3.org/1999/02/22-rdf-syntax-ns#"
   xmlns:svg="http://www.w3.org/2000/svg"
   xmlns="http://www.w3.org/2000/svg"
   xmlns:sodipodi="http://sodipodi.sourceforge.net/DTD/sodipodi-0.dtd"
   xmlns:inkscape="http://www.inkscape.org/namespaces/inkscape"
   version="1.2"
   width="190.36499mm"
   height="122.78222mm"
   viewBox="0 0 19036.499 12278.222"
   preserveAspectRatio="xMidYMid"
   xml:space="preserve"
   id="svg176"
   sodipodi:docname="skyline.svg"
   style="fill-rule:evenodd;stroke-width:28.22200012;stroke-linejoin:round"
   inkscape:version="0.92.5 (2060ec1f9f, 2020-04-08)"><metadata
   id="metadata180"><rdf:RDF><cc:Work
       rdf:about=""><dc:format>image/svg+xml</dc:format><dc:type
         rdf:resource="http://purl.org/dc/dcmitype/StillImage" /><dc:title></dc:title></cc:Work></rdf:RDF></metadata><sodipodi:namedview
   pagecolor="#ffffff"
   bordercolor="#666666"
   borderopacity="1"
   objecttolerance="10"
   gridtolerance="10"
   guidetolerance="10"
   inkscape:pageopacity="0"
   inkscape:pageshadow="2"
   inkscape:window-width="640"
   inkscape:window-height="480"
   id="namedview178"
   showgrid="false"
   fit-margin-top="0"
   fit-margin-left="0"
   fit-margin-right="0"
   fit-margin-bottom="0"
   inkscape:zoom="0.2102413"
   inkscape:cx="359.59892"
   inkscape:cy="-59.939113"
   inkscape:window-x="0"
   inkscape:window-y="0"
   inkscape:window-maximized="0"
   inkscape:current-layer="svg176" />
 <defs
   class="ClipPathGroup"
   id="defs8">
  <clipPath
   id="presentation_clip_path"
   clipPathUnits="userSpaceOnUse">
   <rect
   x="0"
   y="0"
   width="21000"
   height="29700"
   id="rect2" />
  </clipPath>
  <clipPath
   id="presentation_clip_path_shrink"
   clipPathUnits="userSpaceOnUse">
   <rect
   x="21"
   y="29"
   width="20958"
   height="29641"
   id="rect5" />
  </clipPath>
 </defs>
 <defs
   class="TextShapeIndex"
   id="defs12">
  <g
   ooo:slide="id1"
   ooo:id-list="id3 id4 id5 id6 id7 id8 id9 id10 id11 id12 id13 id14 id15"
   id="g10" />
 </defs>
 <defs
   class="EmbeddedBulletChars"
   id="defs44">
  <g
   id="bullet-char-template-57356"
   transform="matrix(4.8828125e-4,0,0,-4.8828125e-4,0,0)">
   <path
   d="M 580,1141 1163,571 580,0 -4,571 Z"
   id="path14"
   inkscape:connector-curvature="0" />
  </g>
  <g
   id="bullet-char-template-57354"
   transform="matrix(4.8828125e-4,0,0,-4.8828125e-4,0,0)">
   <path
   d="M 8,1128 H 1137 V 0 H 8 Z"
   id="path17"
   inkscape:connector-curvature="0" />
  </g>
  <g
   id="bullet-char-template-10146"
   transform="matrix(4.8828125e-4,0,0,-4.8828125e-4,0,0)">
   <path
   d="M 174,0 602,739 174,1481 1456,739 Z M 1358,739 309,1346 659,739 Z"
   id="path20"
   inkscape:connector-curvature="0" />
  </g>
  <g
   id="bullet-char-template-10132"
   transform="matrix(4.8828125e-4,0,0,-4.8828125e-4,0,0)">
   <path
   d="M 2015,739 1276,0 H 717 l 543,543 H 174 v 393 h 1086 l -543,545 h 557 z"
   id="path23"
   inkscape:connector-curvature="0" />
  </g>
  <g
   id="bullet-char-template-10007"
   transform="matrix(4.8828125e-4,0,0,-4.8828125e-4,0,0)">
   <path
   d="m 0,-2 c -7,16 -16,29 -25,39 l 381,530 c -94,256 -141,385 -141,387 0,25 13,38 40,38 9,0 21,-2 34,-5 21,4 42,12 65,25 l 27,-13 111,-251 280,301 64,-25 24,25 c 21,-10 41,-24 62,-43 C 886,937 835,863 770,784 769,783 710,716 594,584 L 774,223 c 0,-27 -21,-55 -63,-84 l 16,-20 C 717,90 699,76 672,76 641,76 570,178 457,381 L 164,-76 c -22,-34 -53,-51 -92,-51 -42,0 -63,17 -64,51 -7,9 -10,24 -10,44 0,9 1,19 2,30 z"
   id="path26"
   inkscape:connector-curvature="0" />
  </g>
  <g
   id="bullet-char-template-10004"
   transform="matrix(4.8828125e-4,0,0,-4.8828125e-4,0,0)">
   <path
   d="M 285,-33 C 182,-33 111,30 74,156 52,228 41,333 41,471 c 0,78 14,145 41,201 34,71 87,106 158,106 53,0 88,-31 106,-94 l 23,-176 c 8,-64 28,-97 59,-98 l 735,706 c 11,11 33,17 66,17 42,0 63,-15 63,-46 V 965 c 0,-36 -10,-64 -30,-84 L 442,47 C 390,-6 338,-33 285,-33 Z"
   id="path29"
   inkscape:connector-curvature="0" />
  </g>
  <g
   id="bullet-char-template-9679"
   transform="matrix(4.8828125e-4,0,0,-4.8828125e-4,0,0)">
   <path
   d="M 813,0 C 632,0 489,54 383,161 276,268 223,411 223,592 c 0,181 53,324 160,431 106,107 249,161 430,161 179,0 323,-54 432,-161 108,-107 162,-251 162,-431 0,-180 -54,-324 -162,-431 C 1136,54 992,0 813,0 Z"
   id="path32"
   inkscape:connector-curvature="0" />
  </g>
  <g
   id="bullet-char-template-8226"
   transform="matrix(4.8828125e-4,0,0,-4.8828125e-4,0,0)">
   <path
   d="m 346,457 c -73,0 -137,26 -191,78 -54,51 -81,114 -81,188 0,73 27,136 81,188 54,52 118,78 191,78 73,0 134,-26 185,-79 51,-51 77,-114 77,-187 0,-75 -25,-137 -76,-188 -50,-52 -112,-78 -186,-78 z"
   id="path35"
   inkscape:connector-curvature="0" />
  </g>
  <g
   id="bullet-char-template-8211"
   transform="matrix(4.8828125e-4,0,0,-4.8828125e-4,0,0)">
   <path
   d="M -4,459 H 1135 V 606 H -4 Z"
   id="path38"
   inkscape:connector-curvature="0" />
  </g>
  <g
   id="bullet-char-template-61548"
   transform="matrix(4.8828125e-4,0,0,-4.8828125e-4,0,0)">
   <path
   d="m 173,740 c 0,163 58,303 173,419 116,115 255,173 419,173 163,0 302,-58 418,-173 116,-116 174,-256 174,-419 0,-163 -58,-303 -174,-418 C 1067,206 928,148 765,148 601,148 462,206 346,322 231,437 173,577 173,740 Z"
   id="path41"
   inkscape:connector-curvature="0" />
  </g>
 </defs>
 <g
   id="g49"
   transform="translate(-985.612,-985.889)">
  <g
   id="id2"
   class="Master_Slide">
   <g
   id="bg-id2"
   class="Background" />
   <g
   id="bo-id2"
   class="BackgroundObjects" />
  </g>
 </g>
 <g
   class="SlideGroup"
   id="g174"
   transform="translate(-985.612,-985.889)">
  <g
   id="g172">
   <g
   id="container-id1">
    <g
   id="id1"
   class="Slide"
   clip-path="url(#presentation_clip_path)">
     <g
   class="Page"
   id="g168">
      <g
   class="com.sun.star.drawing.CustomShape"
   id="g58">
       <g
   id="id3">
        <rect
   class="BoundingBox"
   x="999"
   y="999"
   width="19003"
   height="10003"
   id="rect51"
   style="fill:none;stroke:none" />
        <path
   d="M 10500,11000 H 1000 V 1000 h 19000 v 10000 z"
   id="path53"
   inkscape:connector-curvature="0"
   style="fill:#054d9a;stroke:none" />
        <path
   d="M 10500,11000 H 1000 V 1000 h 19000 v 10000 z"
   id="path55"
   inkscape:connector-curvature="0"
   style="fill:none;stroke:#054d9a" />
       </g>
      </g>
      <g
   class="com.sun.star.drawing.ClosedBezierShape"
   id="g67">
       <g
   id="id4">
        <rect
   class="BoundingBox"
   x="999"
   y="2178"
   width="19011"
   height="8824"
   id="rect60"
   style="fill:none;stroke:none" />
        <path
   d="M 1008,11000 C 1008,9500 758,9500 3008,8500 4588,7710 2870,7661 6758,6250 9008,3500 10386,1804 11258,2250 c 396,203 4000,1250 4500,2000 1000,1250 1000,500 1750,1750 30,154 500,1500 500,1500 307,562 599,515 877,1067 184,455 687,338 1123,933 0,500 0,1000 0,1500 -6000,0 -13000,0 -19000,0 z"
   id="path62"
   inkscape:connector-curvature="0"
   style="fill:#080604;stroke:none" />
        <path
   d="M 1008,11000 C 1008,9500 758,9500 3008,8500 4588,7710 2870,7661 6758,6250 9008,3500 10386,1804 11258,2250 c 396,203 4000,1250 4500,2000 1000,1250 1000,500 1750,1750 30,154 500,1500 500,1500 307,562 599,515 877,1067 184,455 687,338 1123,933 v 1500 z"
   id="path64"
   inkscape:connector-curvature="0"
   style="fill:none;stroke:#080604" />
       </g>
      </g>
      <g
   class="com.sun.star.drawing.CustomShape"
   id="g76">
       <g
   id="id5">
        <rect
   class="BoundingBox"
   x="999"
   y="10999"
   width="19003"
   height="2253"
   id="rect69"
   style="fill:none;stroke:none" />
        <path
   d="M 10500,13250 H 1000 v -2250 h 19000 v 2250 z"
   id="path71"
   inkscape:connector-curvature="0"
   style="fill:#002e5e;stroke:none" />
        <path
   d="M 10500,13250 H 1000 v -2250 h 19000 v 2250 z"
   id="path73"
   inkscape:connector-curvature="0"
   style="fill:none;stroke:#002e5e" />
       </g>
      </g>
      <g
   class="com.sun.star.drawing.CustomShape"
   id="g85">
       <g
   id="id6">
        <rect
   class="BoundingBox"
   x="9249"
   y="7648"
   width="14"
   height="14"
   id="rect78"
   style="fill:none;stroke:none" />
        <path
   d="m 9261,7655 c 0,-1 0,-2 -1,-3 0,-1 -1,-2 -2,-2 -1,-1 -2,-1 -2,-1 -1,0 -2,0 -3,1 -1,0 -2,1 -2,2 -1,1 -1,2 -1,3 0,0 0,1 1,2 0,1 1,2 2,2 1,1 2,1 3,1 0,0 1,0 2,-1 1,0 2,-1 2,-2 1,-1 1,-2 1,-2 z"
   id="path80"
   inkscape:connector-curvature="0"
   style="fill:#ffff00;stroke:none" />
        <path
   d="m 9261,7655 c 0,-1 0,-2 -1,-3 0,-1 -1,-2 -2,-2 -1,-1 -2,-1 -2,-1 -1,0 -2,0 -3,1 -1,0 -2,1 -2,2 -1,1 -1,2 -1,3 0,0 0,1 1,2 0,1 1,2 2,2 1,1 2,1 3,1 0,0 1,0 2,-1 1,0 2,-1 2,-2 1,-1 1,-2 1,-2 z"
   id="path82"
   inkscape:connector-curvature="0"
   style="fill:none;stroke:#ffff00" />
       </g>
      </g>
      <g
   class="com.sun.star.drawing.CustomShape"
   id="g94">
       <g
   id="id7">
        <rect
   class="BoundingBox"
   x="12298"
   y="6048"
   width="24"
   height="24"
   id="rect87"
   style="fill:none;stroke:none" />
        <path
   d="m 12320,6060 c 0,-2 0,-4 -1,-6 -1,-1 -3,-3 -4,-4 -2,-1 -4,-1 -5,-1 -2,0 -4,0 -6,1 -1,1 -3,3 -4,4 -1,2 -1,4 -1,6 0,1 0,3 1,5 1,1 3,3 4,4 2,1 4,1 6,1 1,0 3,0 5,-1 1,-1 3,-3 4,-4 1,-2 1,-4 1,-5 z"
   id="path89"
   inkscape:connector-curvature="0"
   style="fill:#ffff00;stroke:none" />
        <path
   d="m 12320,6060 c 0,-2 0,-4 -1,-6 -1,-1 -3,-3 -4,-4 -2,-1 -4,-1 -5,-1 -2,0 -4,0 -6,1 -1,1 -3,3 -4,4 -1,2 -1,4 -1,6 0,1 0,3 1,5 1,1 3,3 4,4 2,1 4,1 6,1 1,0 3,0 5,-1 1,-1 3,-3 4,-4 1,-2 1,-4 1,-5 z"
   id="path91"
   inkscape:connector-curvature="0"
   style="fill:none;stroke:#ffff00" />
       </g>
      </g>
      <g
   class="com.sun.star.drawing.CustomShape"
   id="g103">
       <g
   id="id8">
        <rect
   class="BoundingBox"
   x="9249"
   y="8741"
   width="74"
   height="74"
   id="rect96"
   style="fill:none;stroke:none" />
        <path
   d="m 9321,8778 c 0,-7 -2,-13 -5,-18 -3,-6 -7,-10 -13,-13 -5,-3 -11,-5 -17,-5 -7,0 -13,2 -18,5 -6,3 -10,7 -13,13 -3,5 -5,11 -5,18 0,6 2,12 5,17 3,6 7,10 13,13 5,3 11,5 18,5 6,0 12,-2 17,-5 6,-3 10,-7 13,-13 3,-5 5,-11 5,-17 z"
   id="path98"
   inkscape:connector-curvature="0"
   style="fill:#ffff00;stroke:none" />
        <path
   d="m 9321,8778 c 0,-7 -2,-13 -5,-18 -3,-6 -7,-10 -13,-13 -5,-3 -11,-5 -17,-5 -7,0 -13,2 -18,5 -6,3 -10,7 -13,13 -3,5 -5,11 -5,18 0,6 2,12 5,17 3,6 7,10 13,13 5,3 11,5 18,5 6,0 12,-2 17,-5 6,-3 10,-7 13,-13 3,-5 5,-11 5,-17 z"
   id="path100"
   inkscape:connector-curvature="0"
   style="fill:none;stroke:#ffff00" />
       </g>
      </g>
      <g
   class="com.sun.star.drawing.CustomShape"
   id="g112">
       <g
   id="id9">
        <rect
   class="BoundingBox"
   x="6778"
   y="8156"
   width="74"
   height="74"
   id="rect105"
   style="fill:none;stroke:none" />
        <path
   d="m 6850,8193 c 0,-7 -2,-13 -5,-18 -3,-6 -7,-10 -13,-13 -5,-3 -11,-5 -17,-5 -7,0 -13,2 -18,5 -6,3 -10,7 -13,13 -3,5 -5,11 -5,18 0,6 2,12 5,17 3,6 7,10 13,13 5,3 11,5 18,5 6,0 12,-2 17,-5 6,-3 10,-7 13,-13 3,-5 5,-11 5,-17 z"
   id="path107"
   inkscape:connector-curvature="0"
   style="fill:#ffff00;stroke:none" />
        <path
   d="m 6850,8193 c 0,-7 -2,-13 -5,-18 -3,-6 -7,-10 -13,-13 -5,-3 -11,-5 -17,-5 -7,0 -13,2 -18,5 -6,3 -10,7 -13,13 -3,5 -5,11 -5,18 0,6 2,12 5,17 3,6 7,10 13,13 5,3 11,5 18,5 6,0 12,-2 17,-5 6,-3 10,-7 13,-13 3,-5 5,-11 5,-17 z"
   id="path109"
   inkscape:connector-curvature="0"
   style="fill:none;stroke:#ffff00" />
       </g>
      </g>
      <g
   class="com.sun.star.drawing.CustomShape"
   id="g121">
       <g
   id="id10">
        <rect
   class="BoundingBox"
   x="4184"
   y="9664"
   width="34"
   height="34"
   id="rect114"
   style="fill:none;stroke:none" />
        <path
   d="m 4216,9681 c 0,-3 -1,-6 -2,-8 -1,-3 -3,-5 -6,-6 -2,-1 -5,-2 -7,-2 -3,0 -6,1 -8,2 -3,1 -5,3 -6,6 -1,2 -2,5 -2,8 0,2 1,5 2,7 1,3 3,5 6,6 2,1 5,2 8,2 2,0 5,-1 7,-2 3,-1 5,-3 6,-6 1,-2 2,-5 2,-7 z"
   id="path116"
   inkscape:connector-curvature="0"
   style="fill:#ffff00;stroke:none" />
        <path
   d="m 4216,9681 c 0,-3 -1,-6 -2,-8 -1,-3 -3,-5 -6,-6 -2,-1 -5,-2 -7,-2 -3,0 -6,1 -8,2 -3,1 -5,3 -6,6 -1,2 -2,5 -2,8 0,2 1,5 2,7 1,3 3,5 6,6 2,1 5,2 8,2 2,0 5,-1 7,-2 3,-1 5,-3 6,-6 1,-2 2,-5 2,-7 z"
   id="path118"
   inkscape:connector-curvature="0"
   style="fill:none;stroke:#ffff00" />
       </g>
      </g>
      <g
   class="com.sun.star.drawing.CustomShape"
   id="g130">
       <g
   id="id11">
        <rect
   class="BoundingBox"
   x="15150"
   y="9348"
   width="64"
   height="64"
   id="rect123"
   style="fill:none;stroke:none" />
        <path
   d="m 15212,9380 c 0,-6 -1,-11 -4,-16 -3,-4 -7,-8 -11,-11 -5,-3 -10,-4 -15,-4 -6,0 -11,1 -16,4 -4,3 -8,7 -11,11 -3,5 -4,10 -4,16 0,5 1,10 4,15 3,4 7,8 11,11 5,3 10,4 16,4 5,0 10,-1 15,-4 4,-3 8,-7 11,-11 3,-5 4,-10 4,-15 z"
   id="path125"
   inkscape:connector-curvature="0"
   style="fill:#ffff00;stroke:none" />
        <path
   d="m 15212,9380 c 0,-6 -1,-11 -4,-16 -3,-4 -7,-8 -11,-11 -5,-3 -10,-4 -15,-4 -6,0 -11,1 -16,4 -4,3 -8,7 -11,11 -3,5 -4,10 -4,16 0,5 1,10 4,15 3,4 7,8 11,11 5,3 10,4 16,4 5,0 10,-1 15,-4 4,-3 8,-7 11,-11 3,-5 4,-10 4,-15 z"
   id="path127"
   inkscape:connector-curvature="0"
   style="fill:none;stroke:#ffff00" />
       </g>
      </g>
      <g
   class="com.sun.star.drawing.CustomShape"
   id="g139">
       <g
   id="id12">
        <rect
   class="BoundingBox"
   x="16050"
   y="7349"
   width="54"
   height="54"
   id="rect132"
   style="fill:none;stroke:none" />
        <path
   d="m 16102,7376 c 0,-5 -1,-9 -3,-13 -3,-4 -6,-7 -10,-10 -4,-2 -8,-3 -12,-3 -5,0 -9,1 -13,3 -4,3 -7,6 -10,10 -2,4 -3,8 -3,13 0,4 1,8 3,12 3,4 6,7 10,10 4,2 8,3 13,3 4,0 8,-1 12,-3 4,-3 7,-6 10,-10 2,-4 3,-8 3,-12 z"
   id="path134"
   inkscape:connector-curvature="0"
   style="fill:#ffff00;stroke:none" />
        <path
   d="m 16102,7376 c 0,-5 -1,-9 -3,-13 -3,-4 -6,-7 -10,-10 -4,-2 -8,-3 -12,-3 -5,0 -9,1 -13,3 -4,3 -7,6 -10,10 -2,4 -3,8 -3,13 0,4 1,8 3,12 3,4 6,7 10,10 4,2 8,3 13,3 4,0 8,-1 12,-3 4,-3 7,-6 10,-10 2,-4 3,-8 3,-12 z"
   id="path136"
   inkscape:connector-curvature="0"
   style="fill:none;stroke:#ffff00" />
       </g>
      </g>
      <g
   class="com.sun.star.drawing.CustomShape"
   id="g148">
       <g
   id="id13">
        <rect
   class="BoundingBox"
   x="7863"
   y="10148"
   width="24"
   height="34"
   id="rect141"
   style="fill:none;stroke:none" />
        <path
   d="m 7885,10165 c 0,-3 0,-6 -1,-8 -1,-3 -3,-5 -4,-6 -2,-1 -4,-2 -5,-2 -2,0 -4,1 -6,2 -1,1 -3,3 -4,6 -1,2 -1,5 -1,8 0,2 0,5 1,7 1,3 3,5 4,6 2,1 4,2 6,2 1,0 3,-1 5,-2 1,-1 3,-3 4,-6 1,-2 1,-5 1,-7 z"
   id="path143"
   inkscape:connector-curvature="0"
   style="fill:#ffff00;stroke:none" />
        <path
   d="m 7885,10165 c 0,-3 0,-6 -1,-8 -1,-3 -3,-5 -4,-6 -2,-1 -4,-2 -5,-2 -2,0 -4,1 -6,2 -1,1 -3,3 -4,6 -1,2 -1,5 -1,8 0,2 0,5 1,7 1,3 3,5 4,6 2,1 4,2 6,2 1,0 3,-1 5,-2 1,-1 3,-3 4,-6 1,-2 1,-5 1,-7 z"
   id="path145"
   inkscape:connector-curvature="0"
   style="fill:none;stroke:#ffff00" />
       </g>
      </g>
      <g
   class="com.sun.star.drawing.CustomShape"
   id="g157">
       <g
   id="id14">
        <rect
   class="BoundingBox"
   x="11794"
   y="10563"
   width="44"
   height="44"
   id="rect150"
   style="fill:none;stroke:none" />
        <path
   d="m 11836,10585 c 0,-4 -1,-8 -3,-11 -2,-3 -4,-5 -7,-7 -3,-2 -7,-3 -11,-3 -3,0 -7,1 -10,3 -3,2 -5,4 -7,7 -2,3 -3,7 -3,11 0,3 1,7 3,10 2,3 4,5 7,7 3,2 7,3 10,3 4,0 8,-1 11,-3 3,-2 5,-4 7,-7 2,-3 3,-7 3,-10 z"
   id="path152"
   inkscape:connector-curvature="0"
   style="fill:#ffff00;stroke:none" />
        <path
   d="m 11836,10585 c 0,-4 -1,-8 -3,-11 -2,-3 -4,-5 -7,-7 -3,-2 -7,-3 -11,-3 -3,0 -7,1 -10,3 -3,2 -5,4 -7,7 -2,3 -3,7 -3,11 0,3 1,7 3,10 2,3 4,5 7,7 3,2 7,3 10,3 4,0 8,-1 11,-3 3,-2 5,-4 7,-7 2,-3 3,-7 3,-10 z"
   id="path154"
   inkscape:connector-curvature="0"
   style="fill:none;stroke:#ffff00" />
       </g>
      </g>
      <g
   class="com.sun.star.drawing.CustomShape"
   id="g166">
       <g
   id="id15">
        <rect
   class="BoundingBox"
   x="2650"
   y="2148"
   width="544"
   height="544"
   id="rect159"
   style="fill:none;stroke:none" />
        <path
   d="m 3192,2420 c 0,-48 -12,-95 -36,-136 -24,-41 -58,-75 -99,-99 -41,-24 -88,-36 -135,-36 -48,0 -95,12 -136,36 -41,24 -75,58 -99,99 -24,41 -36,88 -36,136 0,47 12,94 36,135 24,41 58,75 99,99 41,24 88,36 136,36 47,0 94,-12 135,-36 41,-24 75,-58 99,-99 24,-41 36,-88 36,-135 z"
   id="path161"
   inkscape:connector-curvature="0"
   style="fill:#ffff00;stroke:none" />
        <path
   d="m 3192,2420 c 0,-48 -12,-95 -36,-136 -24,-41 -58,-75 -99,-99 -41,-24 -88,-36 -135,-36 -48,0 -95,12 -136,36 -41,24 -75,58 -99,99 -24,41 -36,88 -36,136 0,47 12,94 36,135 24,41 58,75 99,99 41,24 88,36 136,36 47,0 94,-12 135,-36 41,-24 75,-58 99,-99 24,-41 36,-88 36,-135 z"
   id="path163"
   inkscape:connector-curvature="0"
   style="fill:none;stroke:#ffff00" />
       </g>
      </g>
     </g>
    </g>
   </g>
  </g>
 </g>
</svg>